inDegrees=yes
name=ik_lifting_orientations
DataType=double
version=3
OpenSimVersion=4.5-2024-01-10-34fd6af
endheader
time	pelvis_tilt	pelvis_list	pelvis_rotation	pelvis_tx	pelvis_ty	pelvis_tz	hip_flexion_r	hip_adduction_r	hip_rotation_r	knee_angle_r	knee_angle_r_beta	ankle_angle_r	subtalar_angle_r	mtp_angle_r	hip_flexion_l	hip_adduction_l	hip_rotation_l	knee_angle_l	knee_angle_l_beta	ankle_angle_l	subtalar_angle_l	mtp_angle_l	lumbar_extension	lumbar_bending	lumbar_rotation	arm_flex_r	arm_add_r	arm_rot_r	elbow_flex_r	pro_sup_r	wrist_flex_r	wrist_dev_r	arm_flex_l	arm_add_l	arm_rot_l	elbow_flex_l	pro_sup_l	wrist_flex_l	wrist_dev_l
1.63	10.01629107113143	19.72550640276705	-76.6682202213144	0	0.9399999998679526	0	21.6531536510123	-8.425804988817966	0	31.27922364612194	0.5459254400924936	-4.575777538906672	0	0	21.6531536510123	-8.425804988817966	0	31.27922364612194	0.5459254400924936	-4.575777538906672	0	0	16.54387144086663	-13.53852177393563	2.762037246452792	73.43282355591219	10.08169287256119	3.30267030559133	0.005895878630636972	46.86525113229538	0	0	0	-3.811922499172062	0	43.25358678422469	46.86525113229538	0	0
1.64	10.00810550114499	19.78151334032378	-76.56155486119945	0	0.9399999998679526	0	21.66075695614254	-8.427430478700822	0	31.28779786550804	0.5460750884515693	-4.576348442413407	0	0	21.66075695614254	-8.427430478700822	0	31.28779786550804	0.5460750884515693	-4.576348442413407	0	0	16.55179564066862	-13.55166887617302	1.877584350187214	73.03632688570268	10.60681922015605	3.607607785618945	0.005764352965062636	46.8521209826424	0	0	0	-3.813624589830948	0	43.26665913169463	46.8521209826424	0	0
1.65	9.96682737965526	19.85535794280608	-76.29342918524759	0	0.9399999998679526	0	21.66741850512669	-8.428853777933089	0	31.29530932649039	0.5462061881773465	-4.576848182062966	0	0	21.66741850512669	-8.428853777933089	0	31.29530932649039	0.5462061881773465	-4.576848182062966	0	0	16.54297841156851	-13.5654126117046	1.018887119426472	72.87473977184273	10.863551570677	3.77741916266479	0.00570942375999497	46.84061814116262	0	0	0	-3.815116147008991	0	43.27811135922204	46.84061814116262	0	0
1.66	10.04408728417886	19.835611779746	-76.518394406393	0	0.9399999998679526	0	21.67350281982137	-8.430151599971573	0	31.30217460760877	0.5463260099369371	-4.577303638300586	0	0	21.67350281982137	-8.430151599971573	0	31.30217460760877	0.5463260099369371	-4.577303638300586	0	0	16.47390781790052	-13.49977081637714	0.5352883163540504	72.63104090746025	11.27328839910798	4.060484916359307	0.005607743280696726	46.83011360955298	0	0	0	-3.816480137952538	0	43.28856973508672	46.83011360955298	0	0
1.67	9.984060252367014	19.80574095555506	-76.42631678526256	0	0.9399999998679526	0	21.68124995832265	-8.431805389525614	0	31.31090777958628	0.5464784325420876	-4.57788402819754	0	0	21.68124995832265	-8.431805389525614	0	31.31090777958628	0.5464784325420876	-4.57788402819754	0	0	16.39763403304821	-13.42438522907089	-0.1253097829945635	72.43084733322564	11.59143249293956	4.338990839289033	0.005539729223404627	46.8167381896942	0	0	0	-3.818215176194514	0	43.30188634491147	46.8167381896942	0	0
1.68	10.01312605308861	19.87743869611356	-76.37591346881838	0	0.9399999998679526	0	21.68834643988964	-8.433317770940008	0	31.31891222528837	0.5466181364743862	-4.578414507187598	0	0	21.68834643988964	-8.433317770940008	0	31.31891222528837	0.5466181364743862	-4.578414507187598	0	0	16.37276972728671	-13.40908150073608	-0.6944579816263574	72.2444185562301	12.01058718962074	4.792461935734315	0.005469545517908095	46.80448800789461	0	0	0	-3.819806316772064	0	43.31408273913724	46.80448800789461	0	0
1.69	9.934045157010789	19.88189278802191	-76.16069829840592	0	0.9399999998679526	0	21.69514724416829	-8.434765985263722	0	31.32658360696424	0.5467520273428073	-4.578922309799935	0	0	21.69514724416829	-8.434765985263722	0	31.32658360696424	0.5467520273428073	-4.578922309799935	0	0	16.31607670652921	-13.35849113407923	-1.351501686718293	72.02570159700407	12.37648953837287	5.192585239091764	0.005401766997328749	46.79274936879931	0	0	0	-3.821331769359512	0	43.3257698706706	46.79274936879931	0	0
1.7	9.878545143394939	19.85276870709522	-76.07134344105638	0	0.9399999998679526	0	21.70389362784093	-8.436630060880661	0	31.33643958960969	0.5469240466909897	-4.579575949260001	0	0	21.70389362784093	-8.436630060880661	0	31.33643958960969	0.5469240466909897	-4.579575949260001	0	0	16.22822239077394	-13.2797057511214	-1.894724084627839	71.74531456454672	12.61503824259161	5.647806531818143	0.005359183730302387	46.7776525378863	0	0	0	-3.823291581570418	0	43.34080041156761	46.7776525378863	0	0
1.71	10.01167690077392	19.77810269154243	-76.54426973309957	0	0.9399999998679526	0	21.70747757217829	-8.437388589671858	0	31.34049470804013	0.5469948218591593	-4.579841474209911	0	0	21.70747757217829	-8.437388589671858	0	31.34049470804013	0.5469948218591593	-4.579841474209911	0	0	16.21574323376098	-13.27720612266894	-1.877808181677662	71.48479427872098	13.07181892387758	6.126930334087206	0.005348746541811559	46.77146937038511	0	0	0	-3.824099376056305	0	43.34695658913664	46.77146937038511	0	0
1.72	10.03933531851022	19.70786224773138	-76.71601663342943	0	0.9399999998679526	0	21.71194084195697	-8.438335933212226	0	31.34553410748704	0.547082775971831	-4.580173278251912	0	0	21.71194084195697	-8.438335933212226	0	31.34553410748704	0.547082775971831	-4.580173278251912	0	0	16.18473390125073	-13.24399042953514	-1.882324721398552	71.23294397093535	13.28659443883279	6.604239073344011	0.005359843121798514	46.7637679821109	0	0	0	-3.82510264349668	0	43.35462427759575	46.7637679821109	0	0
